<svg xmlns="http://www.w3.org/2000/svg" width="110.973" height="29" viewBox="0 0 110.973 29">
  <g id="그룹_4140" data-name="그룹 4140" transform="translate(-25 -76)">
    <path id="패스_9610" data-name="패스 9610" d="M5.726-13.47V0H9.07V-13.47h4.98v-2.8H.731v2.8ZM27.106,0V-2.8H19.537V-6.743H26.51V-9.53H19.537V-13.47h7.537v-2.8H16.162V0Zm6.949-13.47V0H37.4V-13.47h4.98v-2.8H29.06v2.8Zm24.6,5.337c0-5.305-3.288-8.355-7.6-8.355-4.328,0-7.593,3.05-7.593,8.355,0,5.289,3.264,8.355,7.593,8.355C55.364.222,58.652-2.827,58.652-8.133Zm-3.423,0c0,3.471-1.66,5.361-4.177,5.361s-4.17-1.89-4.17-5.361,1.66-5.361,4.17-5.361S55.229-11.6,55.229-8.133Zm20.744,0c0-5.305-3.288-8.355-7.6-8.355-4.328,0-7.593,3.05-7.593,8.355,0,5.289,3.264,8.355,7.593,8.355C72.685.222,75.973-2.827,75.973-8.133Zm-3.423,0c0,3.471-1.66,5.361-4.177,5.361S64.2-4.662,64.2-8.133s1.66-5.361,4.17-5.361S72.55-11.6,72.55-8.133Z" transform="translate(60 99)" fill="#222"/>
    <g id="그룹_3802" data-name="그룹 3802" transform="translate(25 76)">
      <g id="그룹_3282" data-name="그룹 3282" transform="translate(0 0)">
        <path id="패스_1" data-name="패스 1" d="M23.794,3.858A14.136,14.136,0,1,0,5.222,25.153,14.136,14.136,0,1,0,23.794,3.858" transform="translate(0 0.001)" fill="#fff"/>
        <path id="패스_2" data-name="패스 2" d="M153.219,103.229c.034.322.072.644.117.966h0C153.291,103.873,153.253,103.551,153.219,103.229Z" transform="translate(-127.236 -85.695)" fill="#006536"/>
        <path id="패스_3" data-name="패스 3" d="M49.048,22.739A14.372,14.372,0,0,1,53.4,33.083,14.038,14.038,0,0,1,39.577,47.3a13.521,13.521,0,0,1-8.709-3.186,13.565,13.565,0,0,0,9.456,3.86,14.039,14.039,0,0,0,13.82-14.217,14.352,14.352,0,0,0-5.1-11.017" transform="translate(-25.145 -18.974)" fill="#006536"/>
        <path id="패스_4" data-name="패스 4" d="M101.816,127.436a12.461,12.461,0,0,0,7.631-5.7,12.461,12.461,0,0,1-7.631,5.7" transform="translate(-84.344 -100.875)" fill="#006536"/>
        <path id="패스_5" data-name="패스 5" d="M157.552,74.634a12.417,12.417,0,0,0-.1-3.255,12.417,12.417,0,0,1,.1,3.255" transform="translate(-130.769 -59.227)" fill="#006536"/>
        <path id="패스_6" data-name="패스 6" d="M116.4,16.716c-.06-.061-.122-.12-.185-.177q.1.088.185.177" transform="translate(-96.557 -13.8)" fill="#088b42"/>
        <path id="패스_7" data-name="패스 7" d="M115.023,15.5c-.023-.02-.046-.04-.069-.059.062.051.122.1.179.156-.037-.033-.073-.066-.11-.1" transform="translate(-95.506 -12.881)" fill="#088b42"/>
        <path id="패스_8" data-name="패스 8" d="M28.252,14.172a14.126,14.126,0,1,0-23.028,11,14.109,14.109,0,0,0,23.028-11M25.785,13.9q.03-1.239.169-2.474.076-.679.186-1.354h0q.14.412.252.837.158.6.259,1.214a12.788,12.788,0,0,1-.6,6.4h0c-.047-.329-.085-.659-.12-.99,0-.017,0-.033-.005-.05-.011-.1-.023-.209-.033-.313q-.056-.609-.085-1.22-.049-1.024-.025-2.049M19.457,2.62h0q.5.232.969.5a12.806,12.806,0,0,1,5.017,5.291h0l-.24-.062-.476-.119-.579-.14c-.6-.142-1.295-.3-2.054-.452l-.534-.106-.242-.047h0l-.8-.125C21.3,4.977,19.457,2.62,19.457,2.62Zm3.4,17.547v-2.4l-1.414.019h0v-.946l.5.015.917.028v-1.9h0l.369.052.493.071.314.047v4.831l-.454.072-.207.032-.515.076h0M18.3,19.772v-4.7h0q1.782.1,3.557.271v.829q-1.226-.074-2.457-.125V18.7q1.315-.045,2.625-.112V19.5q-.441.041-.882.078-1.419.118-2.843.192h0Zm1.679-6.3q-1.056-.08-2.114-.125l.017-.24.047-.673q.582.025,1.164.061,2.5.151,4.99.5l.175.024h0q-.053.286-.107.572l-.062.329q-2.05-.293-4.11-.449m2.549-2.422c-.052-.055-.1-.112-.153-.169l-.018-.02a6.54,6.54,0,0,1-.867-1.275,7.316,7.316,0,0,1-.876.855,7.114,7.114,0,0,1-1.136.767,6.991,6.991,0,0,1-1.505.6l.022-.31q.028-.4.056-.794h0a5.592,5.592,0,0,0,.978-.46q.226-.134.44-.289a5.965,5.965,0,0,0,1.6-1.753l.431.039q.377.034.753.073h0a5.22,5.22,0,0,0,2.324,3l-.036.191q-.084.45-.168.9h0a6.4,6.4,0,0,1-1.844-1.356M19.124,3.5a3.712,3.712,0,0,1,1.165,2.547,3.868,3.868,0,0,1-.021.608,4.364,4.364,0,0,1-2.654,3.581,3.574,3.574,0,0,1-.784.21q-.067,1.375-.134,2.749,0,.056-.005.112h-.043q-.468-.01-.936-.014.042-1.374.084-2.747c0-.037,0-.073,0-.11a3.789,3.789,0,0,1-2.708-2.075,4.3,4.3,0,0,1-.345-.935c.092-.012.181-.021.269-.03.254-.023.495-.033.72-.032h0l.167,0c.167,0,.324.015.473.03a7.771,7.771,0,0,1,1.629.212c.277.064.5.129.642.172h0c.1.031.161.052.161.052-.02-.033-.043-.067-.066-.1a5.158,5.158,0,0,0-.576-.681c-.118-.122-.242-.242-.367-.359h0l-.059-.055-.01-.009c-.107-.1-.219-.193-.334-.284-.151-.119-.306-.231-.468-.336h0a6.076,6.076,0,0,0-.6-.338h0l-.091-.043q-.124-.059-.251-.112l-.053-.022h0l-.16-.063a6.089,6.089,0,0,0-.954-.271A3.9,3.9,0,0,1,16.6,2.486,3.745,3.745,0,0,1,19.124,3.5M16.235,20.769V14.412q.5.018,1,.044v6.267l-.049,0q-.476.026-.951.044h0Zm-2.256-2.607h-.854a6.668,6.668,0,0,1-.427.578c-.067.081-.134.159-.2.235-.164.186-.325.357-.486.511-.192.184-.37.342-.535.476l-.088.071q-.214.166-.358.269l-.087.061h0V18.968q.2-.167.379-.348.195-.2.367-.4a5.922,5.922,0,0,0,.568-.821c.034-.06.066-.12.1-.179a4.268,4.268,0,0,0,.272-.643c.02-.061.037-.121.053-.181a3.1,3.1,0,0,0,.1-.6q-1.039.009-2.078.034V14.764h0q1.314-.053,2.63-.06.322,0,.645,0v.981a3.5,3.5,0,0,1-.094.806c-.025.105-.054.21-.089.314,0,.012-.009.023-.013.035-.023.068-.047.135-.073.2h.782V14.371h.01c.33,0,.661.01.991.018v6.4q-.468.012-.937.018h-.064v-2.65h-.515M4.948,19q-.717-.056-1.432-.119v-.729q3.251.138,6.539.188h0v.941h0q-1.332-.043-2.661-.118l-.114-.006v1.331h0l-.328-.035q-.427-.046-.854-.1V19.082q-.576-.039-1.15-.084M7.24,9.579l-.177-1.5.019,0c.179-.022.358-.041.538-.06l.063-.007a2.357,2.357,0,0,0,.472.423q.26,2.6.519,5.208h0q-.464.049-.928.106l-.018,0h0l-.3-2.544q-.348.042-.7.088L6.6,10.266q.354-.047.709-.089l-.07-.6m1.773,4.78h0v.824q-2.324.128-4.633.381v-.689q.965-.143,1.933-.256,1.347-.158,2.7-.26M5.563,15.8q1.393-.11,2.791-.181c.22-.012.44-.024.66-.034v.825q-.769.02-1.537.047-1.066.037-2.128.085v.387q1.187-.033,2.38-.055c.459-.009.919-.018,1.379-.025v.834l-2.372-.013L4.381,17.65V15.9q.59-.053,1.182-.1m3.97-2.245-.14.012q-.207-2.4-.413-4.79h0a2.419,2.419,0,0,0,.958.007c.035-.006.069-.014.1-.023l.231,3.39.091,1.332c-.278.022-.556.047-.833.072m.807-5.674-.01.007c-.03.019-.061.037-.093.054l-.024.013-.014.007q-.051.026-.1.048h0l-.012.006c-.026.011-.053.019-.08.028l-.045.015-.013,0-.02.006c-.043.012-.088.023-.134.032s-.092.015-.138.02H9.641l-.015,0-.053,0-.063,0H9.457c-.031,0-.063,0-.094,0l-.023,0-.054-.005-.012,0h0C9.23,8.109,9.19,8.1,9.15,8.092l-.028-.005h0l-.031-.008c-.027-.006-.053-.014-.08-.023l-.02-.005.016,0-.017,0h0l-.072-.023L8.86,8c-.025-.01-.05-.022-.075-.034s-.049-.024-.073-.037L8.7,7.926l0,0c-.03-.017-.059-.037-.088-.055l-.042-.026-.01-.006c-.021-.015-.041-.03-.06-.045s-.023-.019-.035-.028l-.077-.069-.043-.043L8.3,7.61c-.017-.019-.032-.039-.048-.059l-.017-.021-.006-.008-.02-.027C8.2,7.483,8.2,7.47,8.187,7.458s-.024-.035-.035-.053L8.14,7.384v0c-.018-.031-.035-.063-.051-.1l0,0-.008-.018,0-.005c-.006-.013-.01-.026-.016-.04s-.021-.049-.03-.074c0-.008,0-.017-.008-.025a1.229,1.229,0,0,1-.058-.262h0c0-.03,0-.06-.006-.09,0,0,0-.005,0-.008V6.752l0-.023c0-.038,0-.076,0-.113,0,0,0-.008,0-.012v0c0-.034.008-.068.013-.1,0-.008,0-.017,0-.025v0c0-.007,0-.014,0-.021.008-.04.016-.075.026-.109V6.336c.007-.025.017-.05.026-.075s.012-.039.02-.058h0c.01-.025.022-.051.034-.076L8.1,6.109c.022-.044.046-.086.072-.128l.01-.016,0-.005.011-.016c.01-.016.021-.032.032-.047l.018-.023,0,0q.037-.047.077-.091l.036-.038L8.405,5.7c.021-.019.042-.038.064-.056l.013-.012.039-.03.03-.021.036-.026.036-.024q.05-.031.1-.059l.033-.017c.03-.015.06-.029.091-.042l.008,0,.02-.009c.027-.011.054-.019.082-.028L9,5.355l.031-.009c.034-.01.069-.018.1-.025l.03-.007c.042-.008.084-.014.126-.018H9.3l.04,0h.024l.085,0h.058l.075,0h.009l.07.006L9.7,5.3c.053.008.1.017.156.03h0l.007,0,.042.012.051.014c.039.013.078.026.117.041l.015.007.069.03.032.014c.033.017.065.035.1.053l.031.019h0l0,0q.045.028.088.06l.017.013.012.009c.03.023.059.047.086.071l0,0,.019.018c.028.026.056.053.082.082l.013.015c.013.014.024.029.036.044s.025.029.037.045l.005.007.007.01c.024.032.046.066.067.1l.013.021c.009.016.017.032.025.048s.022.039.031.059l.01.021c.009.02.016.041.024.062s.016.037.022.055l0,.012v0c.014.043.027.086.036.13s.017.09.023.134,0,.061.007.091c0,0,0,.007,0,.01s0,.018,0,.026,0,.008,0,.013c0,.031,0,.062,0,.092,0,0,0,.008,0,.013s0,0,0,.006l0,.017c0,.02,0,.04-.006.06a.218.218,0,0,1,0,.023s0,0,0,0a.014.014,0,0,1,0,.006.021.021,0,0,1,0,.007s0,0,0,0h0v0h0s0,.006,0,.008a0,0,0,0,1,0,0,.027.027,0,0,1,0,.011.145.145,0,0,1,0,.027.007.007,0,0,1,0,0l0,.021c0,.017-.007.033-.012.049,0,0,0,0,0,0a1.239,1.239,0,0,1-.038.121c-.014.037-.031.074-.048.111l-.016.032c-.017.034-.035.068-.055.1l0,.007a1.442,1.442,0,0,1-.1.143l0,0h0l0,0c-.016.02-.033.039-.05.058l-.01.011-.016.017c-.025.026-.052.052-.08.077l-.047.041-.007.005-.04.032-.029.02-.035.025-.033.022m1.212-2.041a8.012,8.012,0,0,1,2.6.544c.159.066.315.139.467.22h0c-.187-.023-.387-.04-.6-.049a8.589,8.589,0,0,0-1.861.133q-.2.036-.41.083h0a1.936,1.936,0,0,0-.047-.495,2.02,2.02,0,0,0-.151-.436h0m.366,2.553q.058,1.618.117,3.235,1.317-.066,2.637-.077l.413,0q-.01.5-.018,1.007h0q-.523,0-1.046.012-1.055.021-2.108.077-.457.024-.913.055-.118-2.119-.236-4.237h0q.577-.039,1.156-.067M2.439,16.008q-.029.579-.082,1.158c-.015.158-.032.316-.05.474-.032.294-.067.587-.109.879h0q-.2-.562-.355-1.148a12.782,12.782,0,0,1,.27-7.3h0q.053.33.1.662l0,.014c.018.136.034.271.051.407.011.09.024.18.034.271h0l0,.018a28.256,28.256,0,0,1,.139,4.567M8.184,2.925A12.647,12.647,0,0,1,16.105,1.6h0A4.642,4.642,0,0,0,14.583,2,4.927,4.927,0,0,0,13.1,3.055l-.016.016a5.269,5.269,0,0,0-.548.672,5.51,5.51,0,0,0-.47.835c-.068.149-.131.3-.186.456-.212-.017-.417-.026-.613-.031-.155,0-.3-.005-.445,0a2.4,2.4,0,0,0-1.811-.368A2.183,2.183,0,0,0,7.222,6.457a2.006,2.006,0,0,0-.014.293,1.973,1.973,0,0,0,.046.388c.01.046.023.092.036.137s.03.1.048.141h0q-.329.06-.646.122-.4.078-.785.158c-.767.159-1.464.318-2.054.46l-.328.08-.343.085-.374.1A12.8,12.8,0,0,1,8.184,2.925M4.478,8.843q.927-.148,1.857-.272l.027.209q.044.334.088.669c-.246.032-.492.067-.737.1l-.5.074c-.22.033-.441.066-.661.1l.07.428q.043.261.086.521l.524-.081.591-.088.443-.064q.059.439.119.877-.671.092-1.341.2l-.193.03.168,1.026c.191-.031.383-.059.575-.089.464-.071.929-.139,1.394-.2h0l.113.885-.374.051q-.956.131-1.908.29-.426.072-.851.149L3.56,11.458,3.114,9.074q.68-.123,1.364-.231m6.713,17.716a12.739,12.739,0,0,1-7.972-5.887h0l.214.028.35.045.133.017c.744.094,1.649.2,2.65.3.392.04.8.08,1.215.119.989.091,2.037.173,3.092.234,1.1.063,2.2.1,3.254.1s2.158-.039,3.257-.1c1.053-.06,2.1-.142,3.088-.233.417-.038.823-.078,1.215-.119,1-.1,1.906-.21,2.65-.3l.163-.021.3-.039.233-.03h0a12.667,12.667,0,0,1-13.841,5.887" transform="translate(0 0.001)" fill="#088b42"/>
        <path id="패스_9" data-name="패스 9" d="M64.915,40.512h0a.2.2,0,0,0,0,.023c0-.008,0-.015,0-.023h0Z" transform="translate(-53.932 -33.636)" fill="#088b42"/>
        <path id="패스_10" data-name="패스 10" d="M83.688,25.667a2.389,2.389,0,0,0,.88-.157,3.335,3.335,0,0,0,2.006-2.837,2.81,2.81,0,0,0-2.643-3.2,2.66,2.66,0,0,0-.567.05l-.014,0-.051.012-.06.014-.056.015-.054.015-.094.03-.014,0A2.961,2.961,0,0,0,81.2,21.54l.156.061c.028-.081.058-.162.093-.239q.444-.007.888-.009l0-.245q0-.17,0-.341h-.115l-.423,0c.018-.022.036-.043.054-.065a2.709,2.709,0,0,1,.36-.355h.13q0-.05,0-.1h0a2.622,2.622,0,0,1,.444-.256c.029-.013.058-.027.088-.039h0l-.006.25q0,.073,0,.146.379,0,.759.006,0-.116.008-.232.006-.178.013-.357l.1-.006c.054,0,.108,0,.163,0s.1,0,.144.007l.12.012q-.01.227-.02.453c0,.045,0,.091-.006.136q.4.008.792.021l.021-.381c.042.02.083.041.123.064a2.524,2.524,0,0,1,.385.261h0c0,.025,0,.05,0,.075l.1,0h0a2.563,2.563,0,0,1,.381.433h0l-.5-.022-.038.585.108,0q.374.015.747.034a2.671,2.671,0,0,1,.086.292c.01.043.022.087.03.131q-.5-.027-1-.046-.01.16-.021.32-.008.132-.017.265.538.021,1.073.051h.015c0,.02,0,.041,0,.061s0,.048,0,.072,0,.049,0,.074-.006.058-.009.087c0,.01,0,.02,0,.03,0,.03-.008.06-.012.089h-.033q-.486-.027-.973-.046l-.075,0q-.013.2-.026.409l-.011.176c.2.008.392.018.588.027l.384.018c-.017.049-.037.1-.057.143-.037.09-.077.179-.121.263h0l-.453-.02-.368-.016-.038.585.207.009.268.011h0c-.022.026-.046.051-.069.076a2.964,2.964,0,0,1-.344.321l-.042,0-.048,0,0,.075c-.073.053-.149.1-.226.147-.049.029-.1.056-.148.081s-.086.042-.13.061h0q.011-.19.021-.381l-.285-.007-.45-.011q-.013.294-.026.589l-.068,0c-.057,0-.115.006-.174,0a2.353,2.353,0,0,1-.241-.017h0q.006-.168.012-.336,0-.126.009-.253-.352,0-.7-.005l-.009.4q-.064-.03-.126-.063c-.061-.033-.121-.069-.179-.107s-.119-.08-.175-.124c0-.033,0-.067,0-.1h-.121a2.738,2.738,0,0,1-.237-.238c-.049-.056-.1-.113-.143-.173h0l.506,0q0-.241.007-.483v-.1l-.445,0-.408,0c-.015-.033-.027-.068-.04-.1-.032-.081-.061-.164-.086-.249l-.164,0c.01.038.02.076.031.113a2.767,2.767,0,0,0,2.5,2.126" transform="translate(-67.362 -16.248)" fill="#088b42"/>
        <path id="패스_11" data-name="패스 11" d="M91.7,45.426q-.358,0-.717-.005l-.013.586q.355,0,.71.005.01-.293.021-.586" transform="translate(-75.573 -37.708)" fill="#088b42"/>
        <path id="패스_12" data-name="패스 12" d="M47.778,42.9h0v0h0v0" transform="translate(-39.696 -35.618)" fill="#088b42"/>
        <path id="패스_13" data-name="패스 13" d="M52.349,47.144l.054.022v0l-.054-.02" transform="translate(-43.493 -39.143)" fill="#088b42"/>
        <path id="패스_14" data-name="패스 14" d="M99.823,27.394q-.393-.013-.787-.021-.013.293-.025.586.39.008.779.021.016-.293.033-.585" transform="translate(-82.252 -22.84)" fill="#088b42"/>
        <path id="패스_15" data-name="패스 15" d="M93.719,39.394l-.371,0c.122.114.243.231.359.35,0-.059,0-.118.006-.178l.006-.17" transform="translate(-77.553 -32.704)" fill="#088b42"/>
        <path id="패스_16" data-name="패스 16" d="M84.675,33.337a5.972,5.972,0,0,1,.584.33c0-.112,0-.224,0-.337-.2,0-.392,0-.589.007" transform="translate(-70.345 -27.672)" fill="#088b42"/>
        <path id="패스_17" data-name="패스 17" d="M91.384,27.866q.373,0,.746.006.01-.293.021-.586-.377-.005-.754-.006l-.013.586" transform="translate(-75.917 -22.763)" fill="#088b42"/>
        <path id="패스_18" data-name="패스 18" d="M91.246,33.913q.367,0,.734.006.01-.293.021-.586-.371,0-.741-.006l-.013.586" transform="translate(-75.802 -27.668)" fill="#088b42"/>
        <path id="패스_19" data-name="패스 19" d="M98.223,46.1l.39.011.35.009c.01-.181.02-.362.031-.542l0-.043-.495-.013-.163,0h0c.023.034.045.067.065.1,0,0-.057-.02-.157-.05,0,.026,0,.052,0,.079q-.01.228-.02.455" transform="translate(-81.598 -37.789)" fill="#088b42"/>
        <path id="패스_20" data-name="패스 20" d="M99.547,33.437q-.387-.012-.774-.02-.012.293-.025.586.383.008.767.02.016-.293.033-.585" transform="translate(-82.033 -27.743)" fill="#088b42"/>
        <path id="패스_21" data-name="패스 21" d="M99.271,39.48q-.381-.012-.761-.02-.013.293-.026.586.377.008.754.02.016-.293.033-.585" transform="translate(-81.815 -32.76)" fill="#088b42"/>
        <path id="패스_22" data-name="패스 22" d="M60.334,137.4q.2.077.4.145l.408-1.2q.261.089.526.161l.088-.327a8.238,8.238,0,0,1-1.355-.5l-.144.306q.266.125.539.231l-.458,1.177" transform="translate(-50.05 -112.509)" fill="#088b42"/>
        <path id="패스_23" data-name="패스 23" d="M69.355,140.755l.025-.238q-.432-.046-.861-.131l.1-.487q.335.067.673.108l.027-.216q-.33-.04-.657-.105l.076-.384q.379.076.762.116l.027-.251a8.228,8.228,0,0,1-1.1-.194l-.384,1.551a9.819,9.819,0,0,0,1.318.232" transform="translate(-56.515 -115.255)" fill="#088b42"/>
        <path id="패스_24" data-name="패스 24" d="M78.182,141.844q.208,0,.417,0-.012-.632-.024-1.263.272-.005.543-.028l-.028-.337a8.243,8.243,0,0,1-1.422-.005l-.03.337q.286.026.574.032-.014.632-.029,1.263" transform="translate(-64.489 -116.289)" fill="#088b42"/>
        <path id="패스_25" data-name="패스 25" d="M87.7,140.888a.43.43,0,0,0,.159.118.6.6,0,0,0,.2.048.858.858,0,0,0,.194-.007q.2-.032.393-.072a.569.569,0,0,0,.174-.069.607.607,0,0,0,.151-.124.444.444,0,0,0,.091-.163.331.331,0,0,0,0-.183l-.177-.674a.457.457,0,0,0-.231-.3.519.519,0,0,0-.183-.057.659.659,0,0,0-.209.009q-.113.022-.227.041a.666.666,0,0,0-.2.065.57.57,0,0,0-.158.118.489.489,0,0,0-.1.163.43.43,0,0,0-.024.2q.034.342.069.684a.357.357,0,0,0,.077.2m.253-1.057a.277.277,0,0,1,.18-.093l.129-.023a.258.258,0,0,1,.2.024.2.2,0,0,1,.09.129l.133.607a.187.187,0,0,1-.04.174.322.322,0,0,1-.187.094l-.163.029a.4.4,0,0,1-.126,0,.208.208,0,0,1-.088-.033.174.174,0,0,1-.055-.062.249.249,0,0,1-.026-.083l-.087-.613a.2.2,0,0,1,.045-.154" transform="translate(-72.722 -115.616)" fill="#088b42"/>
        <path id="패스_26" data-name="패스 26" d="M97.032,138.059a.354.354,0,0,0,.112.182.427.427,0,0,0,.179.087.608.608,0,0,0,.207.01.867.867,0,0,0,.191-.043q.19-.068.378-.144a.585.585,0,0,0,.161-.1.617.617,0,0,0,.128-.151.45.45,0,0,0,.061-.178.327.327,0,0,0-.03-.181l-.3-.63a.458.458,0,0,0-.119-.159.467.467,0,0,0-.164-.089.53.53,0,0,0-.193-.021.675.675,0,0,0-.207.048q-.109.043-.218.083a.682.682,0,0,0-.185.1.583.583,0,0,0-.136.145.5.5,0,0,0-.071.179.432.432,0,0,0,.012.2l.192.661m.173-.9a.282.282,0,0,1,.163-.124l.124-.047a.263.263,0,0,1,.2-.013.2.2,0,0,1,.113.11l.241.573a.186.186,0,0,1-.008.179.329.329,0,0,1-.169.128l-.157.059a.4.4,0,0,1-.124.027.21.21,0,0,1-.094-.016.175.175,0,0,1-.066-.051.251.251,0,0,1-.041-.077l-.2-.588a.2.2,0,0,1,.017-.16" transform="translate(-80.423 -113.31)" fill="#088b42"/>
        <path id="패스_27" data-name="패스 27" d="M127.381,36.122l.522.1c.742.151,1.422.3,2.009.441l.566.136a11.92,11.92,0,0,0-1.7-2.323,11.445,11.445,0,0,0-1.4,1.642" transform="translate(-105.676 -28.616)" fill="#eee93a"/>
        <path id="패스_28" data-name="패스 28" d="M152.326,71.68q.029.6.083,1.19a11.946,11.946,0,0,0,.057-5.6q-.136,1.2-.165,2.412-.024,1,.025,2" transform="translate(-126.463 -55.785)" fill="#eee93a"/>
        <path id="패스_29" data-name="패스 29" d="M130.719,122.265c-.728.091-1.613.2-2.592.3a11.455,11.455,0,0,0,1.239,1.431,11.945,11.945,0,0,0,1.354-1.727" transform="translate(-106.407 -101.482)" fill="#eee93a"/>
        <path id="패스_30" data-name="패스 30" d="M121.429,22.617a5,5,0,0,1,.78,2.166,12.478,12.478,0,0,1,.862-.932,11.917,11.917,0,0,0-1.642-1.235" transform="translate(-100.862 -18.872)" fill="#eee93a"/>
        <path id="패스_31" data-name="패스 31" d="M64.925,40.136h0c0-.019,0-.039.006-.058l0-.016c0,.025-.006.05-.009.075h0" transform="translate(-53.942 -33.262)" fill="#eee93a"/>
        <path id="패스_32" data-name="패스 32" d="M44.028,129.791a12.564,12.564,0,0,0,8.192-3,12.614,12.614,0,0,1-1.743-2.041c-1,.089-2.068.169-3.138.228-1.117.061-2.241.1-3.311.1s-2.191-.038-3.307-.1c-1.072-.059-2.137-.139-3.142-.228a12.616,12.616,0,0,1-1.743,2.041,12.564,12.564,0,0,0,8.192,3m2.306-2.513a.478.478,0,0,1,.074-.179.59.59,0,0,1,.141-.145.723.723,0,0,1,.192-.1q.114-.04.227-.083a.729.729,0,0,1,.214-.048.574.574,0,0,1,.2.021.489.489,0,0,1,.171.089.463.463,0,0,1,.124.159l.308.63a.316.316,0,0,1,.031.181.438.438,0,0,1-.064.178.617.617,0,0,1-.133.151.606.606,0,0,1-.168.1q-.2.076-.393.144a.93.93,0,0,1-.2.043.657.657,0,0,1-.215-.01.456.456,0,0,1-.186-.087.353.353,0,0,1-.117-.182l-.2-.661a.415.415,0,0,1-.012-.2m-1.574.3a.49.49,0,0,1,.105-.163.593.593,0,0,1,.164-.118.715.715,0,0,1,.206-.065c.079-.013.157-.026.236-.041a.71.71,0,0,1,.217-.009.555.555,0,0,1,.191.057.481.481,0,0,1,.149.118.459.459,0,0,1,.091.178l.183.674a.319.319,0,0,1,0,.183.441.441,0,0,1-.094.163.625.625,0,0,1-.156.124.605.605,0,0,1-.181.069q-.2.04-.409.072a.92.92,0,0,1-.2.007.646.646,0,0,1-.207-.048.445.445,0,0,1-.165-.118.35.35,0,0,1-.08-.2q-.036-.342-.072-.684a.418.418,0,0,1,.025-.2m-1.7-.267a8.887,8.887,0,0,0,1.477.005l.029.337q-.282.023-.565.028.013.632.025,1.263-.216,0-.433,0,.015-.632.03-1.263-.3-.006-.6-.032l.032-.337m-.138-.011q-.014.126-.028.251-.4-.041-.791-.116l-.079.384q.339.065.682.106l-.028.216q-.351-.042-.7-.108l-.1.487q.445.085.894.131l-.026.238a10.574,10.574,0,0,1-1.369-.232l.4-1.551a8.866,8.866,0,0,0,1.147.194m-2.734-.739a8.77,8.77,0,0,0,1.408.5l-.092.327q-.275-.072-.546-.16l-.423,1.2q-.208-.068-.413-.145L40.6,127.1q-.283-.106-.56-.231l.15-.306" transform="translate(-29.902 -103.39)" fill="#eee93a"/>
        <path id="패스_33" data-name="패스 33" d="M47.133,38c0,.007,0,.014,0,.021v0l0-.016" transform="translate(-39.157 -31.547)" fill="#eee93a"/>
        <path id="패스_34" data-name="패스 34" d="M47.308,37.32v.005h0v0" transform="translate(-39.305 -30.986)" fill="#eee93a"/>
        <path id="패스_35" data-name="패스 35" d="M47.726,42.785l-.011-.023,0,.005.008.017h0" transform="translate(-39.644 -35.505)" fill="#eee93a"/>
        <path id="패스_36" data-name="패스 36" d="M89.78,142.128a.253.253,0,0,0,.026.083.174.174,0,0,0,.055.062.208.208,0,0,0,.088.033.4.4,0,0,0,.126,0l.163-.029a.321.321,0,0,0,.187-.094.187.187,0,0,0,.04-.174l-.133-.607a.2.2,0,0,0-.09-.129.258.258,0,0,0-.2-.023l-.129.023a.276.276,0,0,0-.18.092.2.2,0,0,0-.045.154l.087.614" transform="translate(-74.51 -117.145)" fill="#eee93a"/>
        <path id="패스_37" data-name="패스 37" d="M99.182,139.491a.249.249,0,0,0,.041.077.175.175,0,0,0,.066.051.21.21,0,0,0,.094.016.4.4,0,0,0,.124-.027l.157-.059a.331.331,0,0,0,.169-.128.186.186,0,0,0,.008-.178l-.241-.573a.2.2,0,0,0-.113-.11.264.264,0,0,0-.2.013l-.124.047a.282.282,0,0,0-.162.124.2.2,0,0,0-.017.16l.2.588" transform="translate(-82.222 -114.899)" fill="#eee93a"/>
        <path id="패스_38" data-name="패스 38" d="M43.505,11.741a11.831,11.831,0,0,0-7.929,3.035,12.5,12.5,0,0,1,1.175,1.318A2.133,2.133,0,0,1,38.5,14.312a2.353,2.353,0,0,1,1.771.359c.138,0,.284,0,.436,0,.192,0,.392.014.6.03.054-.151.115-.3.182-.444a5.37,5.37,0,0,1,.46-.814,5.151,5.151,0,0,1,.536-.655l.016-.015a4.819,4.819,0,0,1,1.449-1.026c-.149-.005-.3-.009-.448-.009" transform="translate(-29.505 -9.797)" fill="#eee93a"/>
        <path id="패스_39" data-name="패스 39" d="M12.046,67.27h0a11.945,11.945,0,0,0,.057,5.6q.052-.564.08-1.129a27.464,27.464,0,0,0-.136-4.453l0-.018" transform="translate(-9.797 -55.785)" fill="#eee93a"/>
        <path id="패스_40" data-name="패스 40" d="M25.73,122.56c-.979-.1-1.865-.2-2.592-.3a11.917,11.917,0,0,0,1.354,1.727,11.443,11.443,0,0,0,1.239-1.431" transform="translate(-19.307 -101.482)" fill="#eee93a"/>
        <path id="패스_41" data-name="패스 41" d="M20.83,36.8l.321-.078c.578-.139,1.259-.293,2.009-.449q.374-.077.768-.154a11.414,11.414,0,0,0-1.4-1.642,11.911,11.911,0,0,0-1.7,2.322" transform="translate(-17.381 -28.616)" fill="#eee93a"/>
        <path id="패스_42" data-name="패스 42" d="M39.134,50.353q.34-.045.681-.086l.293,2.481h0l.017,0q.454-.055.908-.1h0q-.254-2.539-.508-5.078a2.248,2.248,0,0,1-.187-.141,2.137,2.137,0,0,1-.275-.271L40,47.159c-.176.019-.351.038-.527.059l-.019,0,.173,1.466.069.583q-.347.042-.693.087l.13,1" transform="translate(-32.395 -39.102)" fill="#eee93a"/>
        <path id="패스_43" data-name="패스 43" d="M18.837,53.293l.4,2.15q.416-.076.833-.145.931-.156,1.867-.283l.366-.05L22.2,54.1h0c-.455.059-.91.125-1.364.194-.188.029-.375.056-.563.087l-.165-1,.189-.029q.655-.1,1.311-.194l-.117-.855-.434.062q-.289.041-.578.085l-.513.079-.084-.508-.069-.418h0c.215-.035.431-.067.646-.1l.486-.072c.24-.034.48-.069.721-.1l-.086-.652-.027-.2q-.91.12-1.817.265-.668.107-1.334.226l.436,2.324" transform="translate(-15.354 -41.867)" fill="#eee93a"/>
        <path id="패스_44" data-name="패스 44" d="M52.74,47.287l-.067-.024v0l.067.022" transform="translate(-43.763 -39.242)" fill="#eee93a"/>
        <path id="패스_45" data-name="패스 45" d="M54.323,54.893,54.1,51.588l-.1.022a2.378,2.378,0,0,1-.938-.007h0l.4,4.671.137-.012c.271-.025.543-.049.815-.071q-.044-.649-.089-1.3" transform="translate(-44.072 -42.791)" fill="#eee93a"/>
        <path id="패스_46" data-name="패스 46" d="M53.9,47.631l.027.005c.039.008.078.015.118.021-.049-.006-.1-.015-.145-.026" transform="translate(-44.78 -39.547)" fill="#eee93a"/>
        <path id="패스_47" data-name="패스 47" d="M53.1,47.417l.02.005h0l-.016,0" transform="translate(-44.12 -39.37)" fill="#eee93a"/>
        <path id="패스_48" data-name="패스 48" d="M64.715,49.416q-.565.028-1.13.065h0l.231,4.132q.447-.03.894-.053,1.03-.054,2.063-.075.511-.01,1.023-.012h0l.018-.981-.4,0q-1.291.012-2.58.075h0l-.114-3.154" transform="translate(-52.789 -40.994)" fill="#fff"/>
        <path id="패스_49" data-name="패스 49" d="M111.677,74.332l.1-.557-.171-.023q-2.434-.341-4.881-.488c-.38-.023-.759-.044-1.139-.059q-.023.328-.046.656l-.016.234q1.035.043,2.068.122,2.014.153,4.021.437l.06-.321" transform="translate(-87.57 -60.764)" fill="#fff"/>
        <path id="패스_50" data-name="패스 50" d="M112.424,52.408l.164-.876.035-.186a5.093,5.093,0,0,1-2.274-2.924h0q-.369-.038-.737-.071l-.421-.037a5.823,5.823,0,0,1-1.565,1.71q-.209.151-.43.281a5.48,5.48,0,0,1-.957.448h0l-.054.774-.021.3a6.855,6.855,0,0,0,1.473-.589,6.959,6.959,0,0,0,1.111-.748,7.122,7.122,0,0,0,.857-.834,6.366,6.366,0,0,0,.848,1.244l.018.02c.049.056.1.111.149.164a6.262,6.262,0,0,0,1.8,1.323Z" transform="translate(-88.093 -40.08)" fill="#fff"/>
        <path id="패스_51" data-name="패스 51" d="M75.388,17.247a5.932,5.932,0,0,1,.933.263,2.962,2.962,0,0,1,1.822-1.923l.014,0,.094-.03.054-.015.056-.015.06-.014.051-.012.014,0a2.649,2.649,0,0,1,.567-.051,2.81,2.81,0,0,1,2.643,3.2,3.335,3.335,0,0,1-2.007,2.837,2.389,2.389,0,0,1-.88.157,2.767,2.767,0,0,1-2.5-2.126c-.011-.037-.021-.075-.031-.113h0c-.221,0-.456.008-.7.031q-.129.012-.263.029a4.177,4.177,0,0,0,.337.912A3.705,3.705,0,0,0,78.3,22.394c0,.036,0,.071,0,.107q-.041,1.34-.082,2.679.458,0,.916.014h.042c0-.037,0-.073.005-.11q.065-1.341.131-2.681h0a3.5,3.5,0,0,0,.767-.2,4.258,4.258,0,0,0,2.6-3.493,3.758,3.758,0,0,0,.021-.592,3.615,3.615,0,0,0-1.139-2.484,3.672,3.672,0,0,0-2.467-.985,3.815,3.815,0,0,0-3.7,2.6" transform="translate(-62.48 -12.22)" fill="#fff"/>
        <path id="패스_52" data-name="패스 52" d="M82.149,24.869c.025.085.054.167.086.248.013.034.025.069.04.1l.408,0,.445-.005h0v.1l-.007.483h0l-.506,0h0c.045.06.093.117.142.173a2.759,2.759,0,0,0,.237.239h.121c0,.033,0,.067,0,.1.057.045.115.085.175.124s.118.075.179.108q.062.033.126.063l.009-.4q.352,0,.7.005c0,.084-.006.168-.009.252q-.006.168-.012.336h0a2.4,2.4,0,0,0,.241.017c.058,0,.116,0,.174,0l.068,0q.013-.294.026-.589l.45.011.285.007h0q-.011.191-.022.381h0c.044-.019.087-.039.13-.061s.1-.052.148-.081c.077-.045.153-.094.226-.148,0-.025,0-.05,0-.075h0l.048,0,.042,0a2.953,2.953,0,0,0,.344-.322c.023-.025.046-.05.069-.076h0l-.268-.011-.208-.009q.019-.292.038-.585l.368.017c.151.007.3.012.453.02h0c.045-.085.084-.174.121-.264.02-.047.039-.094.057-.143l-.384-.018c-.2-.009-.392-.019-.589-.027l.011-.176.027-.409h0l.075,0q.486.02.972.046h.033c0-.03.009-.059.012-.089l0-.03c0-.029.007-.058.009-.087s0-.049,0-.074,0-.048,0-.072,0-.041,0-.061h-.015q-.537-.029-1.073-.051.009-.132.017-.264l.021-.32h0q.5.02,1,.046c-.009-.044-.02-.087-.03-.131a2.656,2.656,0,0,0-.086-.291q-.373-.019-.747-.034l-.108,0h0q.019-.293.038-.585l.5.022h0a2.561,2.561,0,0,0-.381-.432h0l-.1,0,0-.075h0a2.52,2.52,0,0,0-.385-.261c-.04-.022-.081-.044-.123-.064q-.011.191-.022.381-.4-.012-.792-.021l.006-.136q.01-.227.02-.453l-.12-.012c-.048,0-.1-.006-.145-.007s-.108,0-.162,0l-.1.006-.012.357c0,.077-.005.155-.008.232q-.38-.005-.759-.007h0q0-.073,0-.146,0-.125.006-.25h0c-.03.012-.059.026-.088.039a2.647,2.647,0,0,0-.445.256h0v.1h-.13a2.707,2.707,0,0,0-.36.355c-.018.022-.037.043-.054.065l.423,0h.115q0,.17,0,.341l0,.245q-.444,0-.888.01c-.035.078-.065.158-.093.24l.051.022c.083.035.165.071.246.11l.089.042h0c.2,0,.392-.006.588-.007h0q0,.169,0,.337h0c.158.1.31.211.458.327.112.088.222.18.327.277l.01.009L84,24.21h0l.371,0-.006.17c0,.059,0,.118-.006.178a5.1,5.1,0,0,1,.564.664l.163,0,.495.013h0l0,.043q-.015.271-.03.542h0l-.35-.009-.391-.01.02-.456,0-.079h0c-.137-.042-.357-.105-.628-.168a7.642,7.642,0,0,0-1.594-.206c-.145-.014-.3-.025-.463-.029m2.24-1.072q-.367,0-.734-.006.007-.293.013-.586.371,0,.741.006-.01.293-.021.586m.035-1q-.373,0-.746-.006.006-.293.013-.586.377,0,.754.006-.01.293-.021.586m.542-.576q.393.008.787.021-.016.293-.033.585-.39-.012-.779-.021.013-.293.025-.586m-.044,1q.387.008.774.02-.016.293-.033.585-.383-.012-.766-.02l.025-.585m-.069,1.586q.013-.293.026-.586.381.008.761.02-.017.293-.033.586-.377-.012-.754-.02m-1.231.4q.358,0,.717.005-.01.293-.021.586-.355,0-.71-.005l.013-.586" transform="translate(-68.188 -17.687)" fill="#fff"/>
        <path id="패스_53" data-name="패스 53" d="M25.885,93.788l2.3.017,2.321.012V93c-.45.007-.9.016-1.349.024q-1.166.023-2.328.054v-.377h0q1.039-.048,2.082-.083.751-.026,1.5-.046v-.8c-.215.01-.43.022-.645.033q-1.368.071-2.731.177-.579.046-1.156.1Z" transform="translate(-21.488 -76.169)" fill="#eee93a"/>
        <path id="패스_54" data-name="패스 54" d="M25.885,85.067v.671q2.257-.247,4.532-.372v-.8h0q-1.323.1-2.641.254-.947.111-1.891.25" transform="translate(-21.489 -70.197)" fill="#eee93a"/>
        <path id="패스_55" data-name="패스 55" d="M23.3,109.037q.417.05.835.094l.321.034h0v-1.3h0l.111.005q1.3.072,2.6.115h0v-.917h0q-3.212-.049-6.4-.184v.711q.7.063,1.4.116.562.043,1.126.082h0Z" transform="translate(-17.335 -88.708)" fill="#eee93a"/>
        <path id="패스_56" data-name="패스 56" d="M67.019,90.915q.459-.006.917-.017V84.653q-.485-.012-.969-.018h-.01v2.6h-.766c.025-.065.049-.13.072-.2l.012-.034c.034-.1.063-.2.087-.307a3.4,3.4,0,0,0,.092-.786v-.956c-.21,0-.42,0-.631,0q-1.287.008-2.573.059h0v1.04q1.016-.025,2.033-.033h0a3.012,3.012,0,0,1-.1.58c-.016.058-.033.117-.052.177a4.133,4.133,0,0,1-.266.627c-.03.058-.061.116-.095.175a5.8,5.8,0,0,1-.556.8c-.112.136-.232.268-.359.394s-.241.231-.371.339v1.358h0l.085-.059q.141-.1.35-.262L64,90.086c.162-.13.336-.284.523-.464.157-.15.316-.317.476-.5.065-.074.131-.15.2-.229a6.437,6.437,0,0,0,.417-.564h1.339v2.584h.063" transform="translate(-52.506 -70.172)" fill="#fff"/>
        <path id="패스_57" data-name="패스 57" d="M96.9,91.031V84.92q-.489-.025-.979-.043v6.2h0q.465-.018.93-.043l.048,0" transform="translate(-79.682 -70.374)" fill="#fff"/>
        <path id="패스_58" data-name="패스 58" d="M128.557,93.237l.2-.031.444-.07V88.425l-.308-.046-.482-.07-.361-.05h0v1.85h0l-.9-.027-.487-.015v.922h0l1.384-.018h0v2.339h0l.5-.074" transform="translate(-105.198 -73.201)" fill="#fff"/>
        <path id="패스_59" data-name="패스 59" d="M110.877,93.168q.432-.036.863-.076V92.2q-1.281.065-2.568.109h0V89.723q1.2.05,2.4.122v-.808q-1.735-.17-3.48-.264h0v4.581h0q1.393-.071,2.782-.187" transform="translate(-89.753 -73.636)" fill="#fff"/>
        <path id="패스_60" data-name="패스 60" d="M68.4,34.806a1.881,1.881,0,0,1,.045.483h0c.136-.03.27-.057.4-.08a8.408,8.408,0,0,1,1.821-.13c.207.008.4.025.585.047h0c-.149-.08-.3-.15-.457-.215a7.863,7.863,0,0,0-2.545-.53h0a1.96,1.96,0,0,1,.148.425" transform="translate(-56.678 -28.541)" fill="#fff"/>
        <path id="패스_61" data-name="패스 61" d="M47.888,39.379a.879.879,0,0,0-.578-1.54.855.855,0,0,0-.286.049h0c0,.008,0,.016,0,.025-.005.033-.01.066-.013.1v0s0,.008,0,.011c0,.037,0,.073,0,.11,0,.008,0,.015,0,.023v.009s0,.005,0,.008c0,.029,0,.058.006.087h0a1.242,1.242,0,0,0,.022.132c.009.042.021.083.035.123l.008.024c.009.025.019.049.029.072s.01.026.016.039l.011.023v0h0c.015.032.032.063.05.094v0l.012.02c.011.018.023.034.034.051s.015.024.024.036l.02.027.006.008.017.02c.015.019.031.039.047.057l.037.039.042.042c.024.023.049.045.075.067l.034.028.059.044.01.007.041.025c.028.018.057.037.086.054l0,0,.012.007a1.57,1.57,0,0,0,.145.069" transform="translate(-39.045 -31.408)" fill="#fff"/>
        <path id="패스_62" data-name="패스 62" d="M59.214,32.107a.879.879,0,0,0,.674,1.442c.023,0,.045,0,.066,0l.028,0h0v0c0-.014,0-.029.005-.044s.007-.05.009-.075c0,0,0,0,0-.006s0-.008,0-.012a.815.815,0,0,0,0-.09s0-.008,0-.012,0-.017,0-.026,0-.007,0-.01c0-.03,0-.059-.006-.089s-.012-.087-.022-.131-.022-.085-.035-.127v0l0-.012c-.006-.019-.015-.036-.022-.054s-.015-.04-.024-.06l-.01-.021c-.009-.02-.02-.039-.03-.058s-.016-.032-.025-.047l-.013-.021c-.021-.034-.042-.066-.066-.1l-.007-.01-.006-.007c-.011-.015-.024-.029-.036-.043s-.023-.029-.035-.043l-.013-.014c-.025-.028-.052-.054-.08-.08l-.019-.018,0,0c-.027-.024-.055-.047-.084-.069l-.012-.009-.017-.013c-.028-.02-.057-.04-.086-.058h0l-.031-.018c-.031-.018-.063-.036-.1-.052" transform="translate(-49.02 -26.651)" fill="#fff"/>
        <path id="패스_63" data-name="패스 63" d="M49.893,33.606l.028-.02.039-.031.006,0,.046-.04q.04-.036.078-.075l.015-.016.01-.011c.017-.018.033-.037.049-.056l0,0h0l0,0a1.386,1.386,0,0,0,.1-.139l0-.007c.02-.032.037-.065.054-.1l.016-.031c.017-.035.033-.071.046-.108h-.03a1.114,1.114,0,0,1-.9-1.769h0l-.05-.014-.041-.011-.007,0h0c-.05-.012-.1-.022-.152-.029l-.042-.006-.068-.006h-.009l-.073,0h-.057l-.082,0H48.85l-.039,0H48.8c-.041,0-.082.01-.123.018l-.03.007c-.034.008-.068.015-.1.025l-.03.009-.041.014c-.027.009-.054.017-.08.028l-.02.009-.008,0q-.046.019-.089.041l-.033.016c-.034.018-.067.037-.1.058l-.035.023-.035.025-.03.021-.038.029L48,31.471c-.021.018-.042.036-.062.054l-.044.043-.035.037c-.026.029-.051.058-.075.089l0,0-.017.022-.032.046-.011.016,0,.005-.01.016a1.389,1.389,0,0,0-.07.124l-.008.017q-.018.036-.033.074c.024,0,.048-.007.073-.01A1.07,1.07,0,0,1,47.8,32a1.114,1.114,0,0,1,.833,1.857h0q.072.016.145.026h.015l.053.005.023,0c.03,0,.061,0,.092,0h.051l.062,0,.052,0,.015,0h.011c.045,0,.089-.011.134-.02h0c.045-.009.088-.02.131-.032l.02-.006.013,0,.044-.015c.026-.009.053-.017.078-.027l.012-.005h0c.035-.014.069-.03.1-.047l.014-.007.024-.012c.031-.017.062-.034.092-.053l.009-.006.032-.022.034-.025" transform="translate(-39.521 -25.827)" fill="#fff"/>
        <path id="패스_64" data-name="패스 64" d="M48.528,37.527a1.109,1.109,0,0,0-1.253-1.106l-.073.01h0c-.008.019-.013.038-.02.057s-.018.048-.025.073v0h0c-.009.033-.018.068-.025.106l0,.016V36.7h0a.859.859,0,0,1,.286-.049.878.878,0,0,1,.578,1.541l.053.02h0l.067.024h0l.017,0h0c.026.008.052.016.078.022l.031.008h0a1.116,1.116,0,0,0,.284-.741" transform="translate(-39.145 -30.222)" fill="#088b42"/>
        <path id="패스_65" data-name="패스 65" d="M57.639,31.864a1.085,1.085,0,0,0-.057.349A1.116,1.116,0,0,0,58.7,33.328h.031a1.193,1.193,0,0,0,.037-.118s0,0,0,0,.009-.031.012-.048l0-.021a.007.007,0,0,0,0,0,.143.143,0,0,0,0-.026.026.026,0,0,0,0-.011,0,0,0,0,0,0,0s0-.006,0-.008h-.029c-.022,0-.044,0-.066,0a.879.879,0,0,1-.674-1.442h0l-.031-.014-.067-.03L57.91,31.6c-.038-.015-.076-.027-.114-.04h0a1.107,1.107,0,0,0-.157.3" transform="translate(-47.832 -26.194)" fill="#088b42"/>
        <path id="패스_66" data-name="패스 66" d="M115.989,20.066l.786.122a4.627,4.627,0,0,0,.031-1.394,5,5,0,0,0-.779-2.166,5.178,5.178,0,0,0-.578-.726h0l-.021-.023-.028-.03h0l-.048-.048h0c-.059-.059-.121-.118-.185-.177h0l-.025-.022,0,0c-.058-.052-.117-.1-.179-.156,0,0,1.808,2.3,1.035,4.628" transform="translate(-95.479 -12.881)" fill="#006536"/>
      </g>
    </g>
  </g>
</svg>
